<svg xmlns="http://www.w3.org/2000/svg" version="1.1" xmlns:xlink="http://www.w3.org/1999/xlink" xmlns:svgjs="http://svgjs.dev/svgjs" width="2000" height="409" viewBox="0 0 2000 409"><g transform="matrix(1,0,0,1,5.4175079653124385,5.918292433475358)"><svg viewBox="0 0 396 81" data-background-color="#000000" preserveAspectRatio="xMidYMid meet" height="409" width="2000" xmlns="http://www.w3.org/2000/svg" xmlns:xlink="http://www.w3.org/1999/xlink"><g id="tight-bounds" transform="matrix(1,0,0,1,0.2400000000000091,0.1415806399008659)"><svg viewBox="0 0 395.52 80.71683872019825" height="80.71683872019825" width="395.52"><g><svg viewBox="0 0 567.7736357331696 115.86997619603268" height="80.71683872019825" width="395.52"><g transform="matrix(1,0,0,1,172.25363573316957,16.013867911318556)"><svg viewBox="0 0 395.52 83.84224037339557" height="83.84224037339557" width="395.52"><g id="textblocktransform"><svg viewBox="0 0 395.52 83.84224037339557" height="83.84224037339557" width="395.52" id="textblock"><g><svg viewBox="0 0 395.52 83.84224037339557" height="83.84224037339557" width="395.52"><g transform="matrix(1,0,0,1,0,0)"><svg width="395.52" viewBox="2.98 -38.07 182.59 38.71" height="83.84224037339557" data-palette-color="#ffffff"><path d="M33.66-25L33.66-25 29.26-25Q28.87-26.9 27.9-28.34 26.94-29.78 25.56-30.76 24.18-31.75 22.51-32.24 20.85-32.74 19.03-32.74L19.03-32.74Q15.73-32.74 13.06-31.07 10.39-29.4 8.82-26.15 7.24-22.9 7.24-18.18L7.24-18.18Q7.24-13.46 8.82-10.21 10.39-6.96 13.06-5.29 15.73-3.62 19.03-3.62L19.03-3.62Q20.85-3.62 22.51-4.12 24.18-4.62 25.56-5.6 26.94-6.59 27.9-8.03 28.87-9.48 29.26-11.36L29.26-11.36 33.66-11.36Q33.17-8.58 31.85-6.37 30.54-4.17 28.59-2.64 26.63-1.1 24.21-0.3 21.79 0.5 19.03 0.5L19.03 0.5Q14.38 0.5 10.76-1.78 7.14-4.05 5.06-8.24 2.98-12.43 2.98-18.18L2.98-18.18Q2.98-23.93 5.06-28.13 7.14-32.32 10.76-34.59 14.38-36.86 19.03-36.86L19.03-36.86Q21.79-36.86 24.21-36.06 26.63-35.26 28.59-33.73 30.54-32.19 31.85-30 33.17-27.81 33.66-25ZM51.28 0.57L51.28 0.57Q47.58 0.57 44.8-1.19 42.03-2.95 40.47-6.11 38.92-9.27 38.92-13.49L38.92-13.49Q38.92-17.76 40.47-20.93 42.03-24.11 44.8-25.87 47.58-27.63 51.28-27.63L51.28-27.63Q54.97-27.63 57.75-25.87 60.53-24.11 62.08-20.93 63.63-17.76 63.63-13.49L63.63-13.49Q63.63-9.27 62.08-6.11 60.53-2.95 57.75-1.19 54.97 0.57 51.28 0.57ZM51.28-3.2L51.28-3.2Q54.08-3.2 55.89-4.63 57.7-6.07 58.57-8.42 59.44-10.76 59.44-13.49L59.44-13.49Q59.44-16.23 58.57-18.59 57.7-20.95 55.89-22.41 54.08-23.86 51.28-23.86L51.28-23.86Q48.47-23.86 46.66-22.41 44.85-20.95 43.98-18.59 43.11-16.23 43.11-13.49L43.11-13.49Q43.11-10.76 43.98-8.42 44.85-6.07 46.66-4.63 48.47-3.2 51.28-3.2ZM74.21-16.41L74.21-16.41 74.21 0 70.02 0 70.02-27.27 74.07-27.27 74.07-23.01 74.43-23.01Q75.39-25.09 77.34-26.36 79.29-27.63 82.38-27.63L82.38-27.63Q85.15-27.63 87.23-26.5 89.31-25.37 90.46-23.09 91.61-20.81 91.61-17.33L91.61-17.33 91.61 0 87.42 0 87.42-17.05Q87.42-20.26 85.75-22.06 84.09-23.86 81.17-23.86L81.17-23.86Q79.17-23.86 77.6-22.99 76.02-22.12 75.12-20.45 74.21-18.79 74.21-16.41ZM96.73-27.27L111.43-27.27 111.43-23.72 96.73-23.72 96.73-27.27ZM105.32 0L101.13 0 101.13-31.04Q101.13-33.38 102.23-34.94 103.33-36.51 105.09-37.29 106.85-38.07 108.8-38.07L108.8-38.07Q110.34-38.07 111.32-37.82 112.3-37.57 112.78-37.36L112.78-37.36 111.57-33.74Q111.25-33.84 110.69-34 110.13-34.16 109.23-34.16L109.23-34.16Q107.15-34.16 106.23-33.11 105.32-32.07 105.32-30.04L105.32-30.04 105.32 0ZM128.75 0.57L128.75 0.57Q124.81 0.57 121.96-1.18 119.11-2.93 117.58-6.08 116.04-9.23 116.04-13.42L116.04-13.42Q116.04-17.61 117.58-20.82 119.11-24.02 121.87-25.83 124.63-27.63 128.33-27.63L128.33-27.63Q130.46-27.63 132.54-26.92 134.61-26.21 136.32-24.62 138.02-23.03 139.03-20.42 140.05-17.81 140.05-13.99L140.05-13.99 140.05-12.22 119.02-12.22 119.02-15.84 135.79-15.84Q135.79-18.15 134.87-19.96 133.96-21.77 132.28-22.82 130.6-23.86 128.33-23.86L128.33-23.86Q125.82-23.86 124-22.63 122.18-21.4 121.21-19.42 120.23-17.45 120.23-15.2L120.23-15.2 120.23-12.78Q120.23-9.69 121.31-7.56 122.38-5.42 124.3-4.31 126.22-3.2 128.75-3.2L128.75-3.2Q130.41-3.2 131.75-3.67 133.09-4.14 134.06-5.09 135.04-6.04 135.57-7.46L135.57-7.46 139.62-6.32Q138.98-4.26 137.47-2.71 135.96-1.15 133.74-0.29 131.52 0.57 128.75 0.57ZM150.63 0L146.44 0 146.44-27.27 150.48-27.27 150.48-23.15 150.77-23.15Q151.51-25.18 153.47-26.44 155.42-27.7 157.87-27.7L157.87-27.7Q158.33-27.7 159.03-27.68 159.72-27.66 160.07-27.63L160.07-27.63 160.07-23.37Q159.86-23.42 159.11-23.54 158.35-23.65 157.52-23.65L157.52-23.65Q155.53-23.65 153.97-22.82 152.42-22 151.52-20.55 150.63-19.11 150.63-17.26L150.63-17.26 150.63 0ZM173.07 0.64L173.07 0.64Q170.48 0.64 168.36-0.35 166.25-1.33 165.01-3.2 163.76-5.08 163.76-7.74L163.76-7.74Q163.76-10.09 164.69-11.55 165.61-13.01 167.15-13.85 168.7-14.68 170.57-15.1 172.45-15.52 174.35-15.77L174.35-15.77Q176.83-16.09 178.39-16.26 179.94-16.42 180.66-16.83 181.38-17.24 181.38-18.25L181.38-18.25 181.38-18.39Q181.38-21.02 179.95-22.48 178.52-23.93 175.62-23.93L175.62-23.93Q172.62-23.93 170.92-22.62 169.21-21.31 168.52-19.82L168.52-19.82 164.54-21.24Q165.61-23.72 167.39-25.12 169.18-26.51 171.3-27.07 173.42-27.63 175.48-27.63L175.48-27.63Q176.8-27.63 178.51-27.32 180.22-27.01 181.83-26.05 183.44-25.09 184.5-23.15 185.57-21.22 185.57-17.97L185.57-17.97 185.57 0 181.38 0 181.38-3.69 181.16-3.69Q180.74-2.81 179.74-1.79 178.75-0.78 177.1-0.07 175.45 0.64 173.07 0.64ZM173.71-3.13L173.71-3.13Q176.19-3.13 177.91-4.1 179.62-5.08 180.5-6.62 181.38-8.17 181.38-9.87L181.38-9.87 181.38-13.71Q181.11-13.39 180.21-13.13 179.32-12.87 178.15-12.69 176.99-12.5 175.9-12.37 174.81-12.23 174.13-12.14L174.13-12.14Q172.5-11.93 171.09-11.46 169.68-10.99 168.81-10.06 167.95-9.13 167.95-7.53L167.95-7.53Q167.95-5.34 169.58-4.23 171.2-3.13 173.71-3.13Z" opacity="1" transform="matrix(1,0,0,1,0,0)" fill="#ffffff" class="wordmark-text-0" data-fill-palette-color="primary" id="text-0"></path></svg></g></svg></g></svg></g></svg></g><g><svg viewBox="0 0 152.46049499477985 115.86997619603268" height="115.86997619603268" width="152.46049499477985"><g><svg xmlns="http://www.w3.org/2000/svg" xml:space="preserve" viewBox="0 13 100 76" x="0" y="0" height="115.86997619603268" width="152.46049499477985" class="icon-icon-0" data-fill-palette-color="accent" id="icon-0"><path d="M49.72 35.093c-8.964 0-16.231 7.268-16.231 16.231s7.268 16.231 16.231 16.231 16.231-7.268 16.231-16.231-7.267-16.231-16.231-16.231m-5.597 26.362V41.193l14.179 10.131z" fill="#347ac3" data-fill-palette-color="accent"></path><path d="M100 83.03A5.97 5.97 0 0 1 94.03 89H5.97A5.97 5.97 0 0 1 0 83.03V18.97A5.97 5.97 0 0 1 5.97 13h88.06a5.97 5.97 0 0 1 5.97 5.97zM5 18v65h89.034l-0.004-65z" fill="#347ac3" data-fill-palette-color="accent"></path></svg></g></svg></g></svg></g><defs></defs></svg><rect width="395.52" height="80.71683872019825" fill="none" stroke="none" visibility="hidden"></rect></g></svg></g></svg>