<svg width="76" height="58" viewBox="0 0 76 58" fill="none" xmlns="http://www.w3.org/2000/svg">
<g clip-path="url(#clip0_5_2)">
<g clip-path="url(#clip1_5_2)">
<g clip-path="url(#clip2_5_2)">
<path d="M37.7872 16.7906C30.9746 16.7906 25.4516 22.3143 25.4516 29.1262C25.4516 35.9381 30.9753 41.4618 37.7872 41.4618C44.5991 41.4618 50.1227 35.9381 50.1227 29.1262C50.1227 22.3143 44.5998 16.7906 37.7872 16.7906ZM33.5335 36.8258V21.4267L44.3095 29.1262L33.5335 36.8258Z" fill="#347AC3"/>
<path d="M76 53.2228C76 54.4261 75.522 55.5802 74.6711 56.4311C73.8202 57.282 72.6661 57.76 71.4628 57.76H4.5372C3.33386 57.76 2.17981 57.282 1.32892 56.4311C0.478025 55.5802 0 54.4261 0 53.2228V4.5372C0 3.33386 0.478025 2.1798 1.32892 1.32891C2.17981 0.478025 3.33386 0 4.5372 0H71.4628C72.6661 0 73.8202 0.478025 74.6711 1.32891C75.522 2.1798 76 3.33386 76 4.5372V53.2228ZM3.8 3.8V53.2H71.4658L71.4628 3.8H3.8Z" fill="#347AC3"/>
</g>
</g>
</g>
<defs>
<clipPath id="clip0_5_2">
<rect width="76" height="58" fill="white"/>
</clipPath>
<clipPath id="clip1_5_2">
<rect width="76" height="57.76" fill="white"/>
</clipPath>
<clipPath id="clip2_5_2">
<rect width="76" height="57.76" fill="white"/>
</clipPath>
</defs>
</svg>
